<svg xmlns="http://www.w3.org/2000/svg" viewBox="0 0 377.1 55.2">
  <g fill="#ffffff" stroke="none">
    <g transform="translate(0,0) scale(0.375510,0.375510)">

  <circle cx="69" cy="10" r="10"/>
  <path d="M 46.5 31 C 44 31, 43 33, 42.5 36 C 42 42, 41.5 48, 41 55 C 40 63, 38.5 70, 36.5 78 C 34.5 86, 32.5 93, 29.5 100 C 26 108, 22 116, 17 124 C 11 134, 4 141, 0 146 L 1 146 C 7 144, 15 140, 22 135 C 30 128, 36 120, 39 113 C 42 106, 44 99, 46 92 C 48 84, 49 77, 50 70 C 51 63, 52 56, 53 49 C 54 42, 54 36, 53 33 C 52 31, 50 31, 48.5 31 Z"/>
  <path d="M 69 47 C 68 47, 67 48, 66.5 52 C 65.5 60, 64.5 68, 63.5 78 C 62.5 88, 61 97, 60 106 C 59 114, 57 122, 55 130 C 53 136, 51 140, 49 144 L 89 144 C 87 140, 85 136, 83 130 C 81 122, 79 114, 78 106 C 77 97, 75.5 88, 74.5 78 C 73.5 68, 72.5 60, 71.5 52 C 71 48, 70 47, 69 47 Z M 69 132 L 63 144 L 75 144 Z" fill-rule="evenodd"/>
  <path d="M 91.5 31 C 94 31, 95 33, 95.5 36 C 96 42, 96.5 48, 97 55 C 98 63, 99.5 70, 101.5 78 C 103.5 86, 105.5 93, 108.5 100 C 112 108, 116 116, 121 124 C 127 134, 134 141, 138 146 L 137 146 C 131 144, 123 140, 116 135 C 108 128, 102 120, 99 113 C 96 106, 94 99, 92 92 C 90 84, 89 77, 88 70 C 87 63, 86 56, 85 49 C 84 42, 84 36, 85 33 C 86 31, 88 31, 89.5 31 Z"/>

    </g>
    <g transform="translate(59.8,0)">
      <g transform="translate(-14.2,55.2) scale(0.1,-0.1)">
        <path d="M212 388 c90 -209 148 -348 155 -370 4 -15 17 -18 72 -18 l68 0 112
262 c63 145 116 269 118 276 4 9 -12 12 -58 12 l-64 -1 -62 -142 c-35 -78 -72
-164 -84 -191 l-22 -50 -15 30 c-9 16 -45 101 -81 189 l-66 160 -72 3 -71 3
70 -163z M790 275 l0 -275 210 0 210 0 0 50 0 50 -145 0 -145 0 0 65 0 65 125
0 125 0 0 50 0 50 -125 0 -125 0 0 60 0 60 140 0 140 0 0 50 0 50 -205 0 -205
0 0 -275z M1300 275 l0 -275 59 0 c68 0 71 4 71 103 l0 57 55 0 54 0 52 -80
51 -80 70 0 c52 0 67 3 62 13 -4 6 -29 44 -56 83 -26 39 -48 75 -48 80 0 5 16
19 34 32 64 44 86 160 45 236 -46 86 -104 106 -306 106 l-143 0 0 -275z m316
142 c15 -18 24 -41 24 -62 0 -21 -9 -44 -24 -62 -22 -25 -31 -28 -105 -31
l-81 -4 0 97 0 97 81 -4 c74 -3 83 -6 105 -31z M1866 489 c-3 -34 -6 -158 -6
-275 l0 -214 65 0 65 0 0 275 0 275 -59 0 -58 0 -7 -61z M2050 500 l0 -50 90
0 90 0 0 -225 0 -225 65 0 65 0 0 225 0 225 85 0 85 0 0 50 0 50 -240 0 -240
0 0 -50z M2590 275 l0 -275 65 0 65 0 0 275 0 275 -65 0 -65 0 0 -275z M2840
276 l0 -276 60 0 60 0 0 80 0 80 58 0 57 0 54 -80 53 -80 70 0 c54 0 67 3 61
13 -4 7 -31 46 -59 88 l-51 74 42 37 c33 29 46 49 55 87 23 96 -7 171 -87 218
-47 27 -53 28 -210 31 l-163 4 0 -276z m285 160 c37 -16 55 -42 55 -81 0 -64
-50 -95 -155 -95 l-65 0 0 95 0 95 65 0 c36 0 81 -6 100 -14z"/>
      </g>
    </g>
  </g>
</svg>