<svg xmlns="http://www.w3.org/2000/svg" viewBox="0 0 265 55.2">
  <g fill="#ffffff" stroke="none">
    <!-- Icon mark (full height, re-traced at 2000px for smooth curves) -->
    <g transform="scale(0.375510,0.375510)">
  <circle cx="69" cy="10" r="10"/>
  <path d="M 45.51,31.13 c -0.79,0.22 -1.49,0.77 -1.97,1.59 -0.32,0.54 -0.71,1.65 -0.89,2.54 -0.17,0.82 -1.07,11.6 -1.59,18.99 -0.12,1.59 -0.82,6.3 -1.47,9.81 -0.69,3.7 -1.35,6.76 -2.47,11.39 -2.82,11.72 -5.11,18.9 -8.25,25.95 -3.65,8.22 -7.03,14.66 -11.47,21.94 -3.93,6.42 -6.73,10.19 -13.28,17.79 -1.24,1.43 -2.67,3.1 -3.18,3.71 -0.93,1.1 -0.93,1.1 -0.44,1.12 0.57,0.02 1.08,-0.13 3.58,-1.12 5.37,-2.13 11.5,-5.43 16.65,-8.97 2.59,-1.78 6.87,-6.02 10.27,-10.16 2.95,-3.6 5.43,-7.39 7.15,-10.93 1.61,-3.31 3.57,-8.56 5.39,-14.44 0.83,-2.7 2.33,-7.87 2.65,-9.15 1.0,-4.04 1.99,-9.13 2.87,-14.88 0.94,-6.13 4.16,-28.96 4.35,-30.76 0.51,-5.16 0.43,-9.19 -0.23,-11.83 -0.34,-1.37 -1.08,-2.12 -2.49,-2.51 -0.64,-0.18 -4.59,-0.23 -5.18,-0.06 Z"/>
  <path d="M 68.41,47.16 c -0.74,0.38 -1.29,1.46 -1.65,3.26 -0.36,1.79 -2.17,17.03 -3.16,26.65 -0.57,5.58 -0.96,8.71 -2.13,17.41 -0.57,4.27 -0.9,6.83 -1.48,11.55 -0.53,4.37 -1.52,9.57 -3.04,16.03 -1.24,5.26 -1.95,7.96 -2.41,9.29 -1.24,3.51 -2.47,6.4 -4.51,10.58 -0.54,1.11 -0.99,2.03 -0.99,2.04 0.0,0.01 3.15,0.02 6.98,0.02 l 6.98,-0.0 2.99,-5.99 3.0,-5.99 2.99,5.99 3.0,5.99 6.98,-0.0 c 3.85,-0.0 6.98,-0.01 6.98,-0.02 0.0,-0.01 -0.44,-0.93 -0.99,-2.04 -3.18,-6.5 -4.5,-9.97 -5.75,-15.06 -2.45,-9.93 -3.57,-15.52 -4.26,-21.17 -0.51,-4.28 -0.84,-6.76 -1.44,-11.25 -1.18,-8.73 -1.54,-11.72 -2.12,-17.38 -0.98,-9.5 -2.82,-24.96 -3.17,-26.67 -0.37,-1.8 -0.93,-2.9 -1.64,-3.23 -0.32,-0.15 -0.9,-0.15 -1.18,-0.0 Z" fill-rule="evenodd"/>
  <path d="M 87.8,31.1 c -0.96,0.14 -1.84,0.6 -2.31,1.19 -0.42,0.51 -0.49,0.68 -0.68,1.43 -0.71,2.82 -0.74,7.39 -0.11,12.96 0.19,1.65 3.9,27.64 4.4,30.8 0.83,5.28 1.93,10.77 2.87,14.37 0.77,2.98 3.1,10.62 4.1,13.52 2.35,6.72 3.99,10.36 6.48,14.26 2.81,4.4 6.82,9.2 10.95,13.08 2.07,1.94 2.34,2.17 3.39,2.91 4.93,3.46 11.31,6.93 16.84,9.15 2.51,1.01 3.18,1.22 3.75,1.2 0.49,-0.02 0.49,-0.02 -0.43,-1.12 -0.51,-0.61 -1.93,-2.28 -3.18,-3.71 -6.57,-7.63 -9.34,-11.35 -13.28,-17.79 -3.13,-5.13 -5.17,-8.81 -7.74,-14.0 -5.32,-10.75 -7.65,-16.99 -10.69,-28.74 -2.14,-8.24 -3.62,-15.13 -4.56,-21.28 -0.49,-3.18 -0.61,-4.23 -0.82,-7.09 -0.57,-7.73 -1.28,-16.17 -1.44,-16.96 -0.48,-2.37 -1.45,-3.75 -2.9,-4.12 -0.35,-0.1 -0.83,-0.12 -2.32,-0.11 -1.03,0.01 -2.08,0.04 -2.34,0.07 Z"/>
    </g>
    <!-- Wordmark (2/3 height, vertically centered) -->
    <g transform="translate(57,0)">
      <g transform="translate(-9.5,46) scale(0.0667,-0.0667)">
        <path d="M212 388 c90 -209 148 -348 155 -370 4 -15 17 -18 72 -18 l68 0 112
262 c63 145 116 269 118 276 4 9 -12 12 -58 12 l-64 -1 -62 -142 c-35 -78 -72
-164 -84 -191 l-22 -50 -15 30 c-9 16 -45 101 -81 189 l-66 160 -72 3 -71 3
70 -163z M790 275 l0 -275 210 0 210 0 0 50 0 50 -145 0 -145 0 0 65 0 65 125
0 125 0 0 50 0 50 -125 0 -125 0 0 60 0 60 140 0 140 0 0 50 0 50 -205 0 -205
0 0 -275z M1300 275 l0 -275 59 0 c68 0 71 4 71 103 l0 57 55 0 54 0 52 -80
51 -80 70 0 c52 0 67 3 62 13 -4 6 -29 44 -56 83 -26 39 -48 75 -48 80 0 5 16
19 34 32 64 44 86 160 45 236 -46 86 -104 106 -306 106 l-143 0 0 -275z m316
142 c15 -18 24 -41 24 -62 0 -21 -9 -44 -24 -62 -22 -25 -31 -28 -105 -31
l-81 -4 0 97 0 97 81 -4 c74 -3 83 -6 105 -31z M1866 489 c-3 -34 -6 -158 -6
-275 l0 -214 65 0 65 0 0 275 0 275 -59 0 -58 0 -7 -61z M2050 500 l0 -50 90
0 90 0 0 -225 0 -225 65 0 65 0 0 225 0 225 85 0 85 0 0 50 0 50 -240 0 -240
0 0 -50z M2590 275 l0 -275 65 0 65 0 0 275 0 275 -65 0 -65 0 0 -275z M2840
276 l0 -276 60 0 60 0 0 80 0 80 58 0 57 0 54 -80 53 -80 70 0 c54 0 67 3 61
13 -4 7 -31 46 -59 88 l-51 74 42 37 c33 29 46 49 55 87 23 96 -7 171 -87 218
-47 27 -53 28 -210 31 l-163 4 0 -276z m285 160 c37 -16 55 -42 55 -81 0 -64
-50 -95 -155 -95 l-65 0 0 95 0 95 65 0 c36 0 81 -6 100 -14z"/>
      </g>
    </g>
  </g>
</svg>
